<svg width="167" height="35" viewBox="0 0 167 35" fill="none" xmlns="http://www.w3.org/2000/svg">
<path d="M48.08 23.4626V10.7926H50.8976V23.4626H48.08ZM50.2336 23.4626V21.022H57.1788V23.4626H50.2336ZM50.2336 18.1685V15.8175H56.5507V18.1685H50.2336ZM50.2336 13.2153V10.7926H57.0891V13.2153H50.2336ZM58.4392 21.4886L64.8102 12.7487H68.2199L61.8311 21.4886H58.4392ZM58.4392 23.4626V21.4886L60.3056 21.0399H68.0584V23.4626H58.4392ZM58.7982 13.2153V10.7926H68.2199V12.7487L66.3176 13.2153H58.7982ZM68.5803 23.4626L73.6052 10.7926H76.1536L81.1247 23.4626H78.1456L74.341 12.9461H75.364L71.5055 23.4626H68.5803ZM71.4337 21.1655V18.8684H78.343V21.1655H71.4337ZM85.5148 23.4626V10.7926H88.3324V23.4626H85.5148ZM87.6684 18.4915V16.0688H94.0034V18.4915H87.6684ZM87.6684 13.2153V10.7926H94.2905V13.2153H87.6684ZM96.1003 23.4626V10.7926H98.9179V23.4626H96.1003ZM101.358 23.4626V10.7926H103.332L104.176 13.323V23.4626H101.358ZM110.098 23.4626L102.632 13.8973L103.332 10.7926L110.798 20.3579L110.098 23.4626ZM110.098 23.4626L109.344 20.9322V10.7926H112.162V23.4626H110.098ZM113.656 23.4626L118.681 10.7926H121.23L126.201 23.4626H123.222L119.417 12.9461H120.44L116.581 23.4626H113.656ZM116.51 21.1655V18.8684H123.419V21.1655H116.51ZM127.541 23.4626V10.7926H129.515L130.359 13.323V23.4626H127.541ZM136.281 23.4626L128.816 13.8973L129.515 10.7926L136.981 20.3579L136.281 23.4626ZM136.281 23.4626L135.527 20.9322V10.7926H138.345V23.4626H136.281ZM146.803 23.6601C145.858 23.6601 144.978 23.4985 144.165 23.1755C143.363 22.8405 142.657 22.3739 142.047 21.7757C141.449 21.1775 140.982 20.4836 140.647 19.6939C140.312 18.8923 140.145 18.0309 140.145 17.1097C140.145 16.1884 140.312 15.333 140.647 14.5434C140.982 13.7418 141.449 13.0478 142.047 12.4616C142.645 11.8753 143.345 11.4207 144.147 11.0977C144.96 10.7627 145.84 10.5952 146.785 10.5952C147.79 10.5952 148.681 10.7567 149.459 11.0797C150.248 11.4028 150.936 11.8454 151.523 12.4077L149.638 14.31C149.303 13.9511 148.896 13.67 148.418 13.4666C147.951 13.2632 147.407 13.1615 146.785 13.1615C146.234 13.1615 145.726 13.2572 145.259 13.4486C144.805 13.6281 144.41 13.8913 144.075 14.2383C143.752 14.5852 143.495 15.004 143.303 15.4945C143.124 15.985 143.034 16.5234 143.034 17.1097C143.034 17.7079 143.124 18.2522 143.303 18.7428C143.495 19.2333 143.752 19.6521 144.075 19.999C144.41 20.346 144.805 20.6152 145.259 20.8066C145.726 20.998 146.234 21.0937 146.785 21.0937C147.431 21.0937 147.993 20.992 148.472 20.7887C148.95 20.5853 149.363 20.3041 149.71 19.9452L151.612 21.8475C151.002 22.4098 150.302 22.8525 149.513 23.1755C148.735 23.4985 147.832 23.6601 146.803 23.6601ZM153.164 23.4626V10.7926H155.981V23.4626H153.164ZM155.317 23.4626V21.022H162.263V23.4626H155.317ZM155.317 18.1685V15.8175H161.634V18.1685H155.317ZM155.317 13.2153V10.7926H162.173V13.2153H155.317Z" fill="#121C3A"/>
<g clip-path="url(#clip0_158_2227)">
<circle cx="17.1985" cy="17.1985" r="12.2134" fill="#121C3A"/>
<path d="M17.1985 34.397C7.69956 34.397 0 26.6975 0 17.1985C0 7.69956 7.69956 0 17.1985 0C26.6975 0 34.397 7.69956 34.397 17.1985C34.397 26.6975 26.6975 34.397 17.1985 34.397ZM18.4314 21.9775L12.5474 15.8506L10.7491 17.6822L14.9627 21.9765L10.9028 26.1138L12.5732 27.9476L18.4314 21.9775ZM21.8496 18.5475L23.6479 16.7137L19.4343 12.4195L23.4942 8.28216L21.8238 6.44944L15.9398 12.4195L21.8496 18.5475ZM13.2934 15.1433L19.2032 21.2703L21.0015 19.4375L15.0917 13.4148L13.2934 15.1433Z" fill="#34C9A5"/>
</g>
<defs>
<clipPath id="clip0_158_2227">
<rect width="34.397" height="34.397" fill="white"/>
</clipPath>
</defs>
</svg>