<svg width="37" height="37" viewBox="7 8.5 37 37" fill="none" xmlns="http://www.w3.org/2000/svg">
<path d="M43.5 27C43.5 36.8772 35.5351 45 25.5 45C15.6257 45 7.5 36.8743 7.5 27C7.5 17.1228 15.4649 9 25.5 9C35.3772 9 43.5 16.9649 43.5 27Z" fill="#3F9ED8" fill-opacity="0.1" stroke="#3F9ED8" />
<g>
<path fill-rule="evenodd" clip-rule="evenodd" d="M19.7824 37.1799L20.3403 37.4994L20.34 37.5001C20.3685 37.5155 20.3972 37.5308 20.4259 37.546C20.4859 37.578 20.546 37.6099 20.6049 37.6438C20.9652 37.8514 21.3256 38.0587 21.6861 38.2661L21.6885 38.2674C22.8168 38.9163 23.9452 39.5653 25.0687 40.2226C25.367 40.3969 25.6161 40.4 25.9176 40.2254C29.5374 38.1317 33.1618 36.0455 36.7882 33.963C37.06 33.8067 37.1826 33.6077 37.1821 33.2884C37.1755 29.0938 37.1757 24.8994 37.1819 20.7048C37.1821 20.3961 37.0666 20.1963 36.8019 20.0477C36.1549 19.684 35.5128 19.3116 34.8707 18.9392L34.8707 18.9392L34.8707 18.9392L34.8707 18.9392L34.6878 18.8332C33.9806 18.4231 33.274 18.0119 32.5674 17.6007L32.567 17.6004L32.5665 17.6002L32.5661 17.5999L32.566 17.5999C30.3543 16.3128 28.1425 15.0256 25.9108 13.7728C25.6186 13.609 25.3746 13.5978 25.0843 13.7713C24.5124 14.1132 23.931 14.439 23.3497 14.7648L23.3497 14.7648L23.3497 14.7648L23.0775 14.9174C21.734 15.6717 20.4039 16.4491 19.0739 17.2266L19.0739 17.2266L19.0739 17.2266C18.0144 17.846 16.9549 18.4653 15.8886 19.0729C15.5908 19.2426 15.2942 19.4143 14.9976 19.5861C14.7154 19.7495 14.4333 19.9128 14.1501 20.0745C13.9793 20.1719 13.8488 20.2946 13.8249 20.4992C13.8177 20.56 13.8181 20.6219 13.8186 20.6836L13.8188 20.7277C13.8183 24.6258 13.8183 28.5238 13.8188 32.4214C13.8188 32.4734 13.8219 32.5254 13.825 32.5774L13.825 32.5774C13.8264 32.6012 13.8278 32.625 13.8289 32.6488L13.8285 32.6491C13.8275 32.729 13.8262 32.8088 13.825 32.8887C13.8221 33.0712 13.8193 33.2537 13.8184 33.4362C13.8174 33.6199 13.8957 33.7734 14.0499 33.8645C14.5507 34.1593 15.0539 34.45 15.5572 34.7408L15.5573 34.7409L15.5574 34.7409L15.5575 34.741L15.5576 34.741C15.7792 34.8691 16.0009 34.9972 16.2223 35.1256C16.2892 35.1643 16.333 35.1426 16.3684 35.0823C16.3845 35.0547 16.4018 35.0277 16.419 35.0009L16.4358 34.9747C18.1013 32.3621 19.7647 29.7485 21.4053 27.1201C21.5694 26.8572 21.7336 26.5944 21.8979 26.3315L21.9011 26.3265L21.9013 26.3261L21.9014 26.326C22.8171 24.8609 23.7329 23.3957 24.6189 21.9124C24.6346 21.8862 24.651 21.8602 24.6673 21.8342L24.6673 21.8342L24.6674 21.8341C24.7269 21.7394 24.7867 21.6445 24.8154 21.5345C24.7177 21.4742 24.6169 21.4663 24.5149 21.4638L24.335 21.4588H24.335H24.335C23.9205 21.447 23.5058 21.4353 23.0919 21.4651C22.5847 21.5017 22.0829 21.5722 21.6063 21.7658C21.1022 21.9709 20.6592 22.2526 20.3554 22.7203C20.1888 22.9767 20.0205 23.232 19.8521 23.4872L19.852 23.4873L19.8519 23.4876C19.7033 23.7128 19.5547 23.938 19.4075 24.1639C18.3704 25.7559 17.334 27.3482 16.2977 28.9406L16.2958 28.9435L15.7087 29.8456C15.6364 29.8007 15.6449 29.7355 15.653 29.6729C15.6556 29.6534 15.6581 29.6342 15.6581 29.6159C15.6571 28.6296 15.6568 27.6432 15.6565 26.6567V26.6567V26.6567V26.6567C15.6559 24.9579 15.6554 23.259 15.6517 21.5603C15.6514 21.3936 15.7031 21.3045 15.8459 21.2226C18.9939 19.4149 22.1398 17.6033 25.2838 15.788C25.4296 15.7037 25.5395 15.6887 25.694 15.778C28.8292 17.5914 31.9668 19.4001 35.1085 21.2025C35.2876 21.3056 35.3426 21.4191 35.3421 21.6191C35.337 23.8688 35.3374 26.1184 35.3378 28.3681V28.3705L35.338 30.1577L35.3374 30.1583L35.3374 30.158C35.2553 30.1286 35.2172 30.0601 35.1797 29.9926L35.1797 29.9925C35.1682 29.9718 35.1567 29.9511 35.144 29.9318C33.9772 28.1457 32.8115 26.3589 31.6458 24.5721L30.5216 22.8492C30.4872 22.7965 30.4506 22.7454 30.4149 22.6954L30.4148 22.6953C30.3993 22.6736 30.3839 22.6521 30.369 22.6309C30.2982 22.6582 30.2718 22.7079 30.2469 22.7546C30.2402 22.7671 30.2337 22.7793 30.2265 22.7909C30.0517 23.0707 29.8777 23.3509 29.7036 23.6311L29.7033 23.6317C29.3102 24.2645 28.9171 24.8974 28.5159 25.5252C28.4032 25.7015 28.4093 25.8216 28.5154 25.9959C29.9032 28.2739 31.285 30.5554 32.667 32.837L32.667 32.8372L33.1523 33.6383C33.162 33.6543 33.1727 33.6699 33.1834 33.6856C33.2203 33.7394 33.2575 33.7937 33.2551 33.8653L33.2559 33.8648L33.2557 33.8653C33.0236 33.9992 32.7915 34.1329 32.5594 34.2667C32.4903 34.2128 32.446 34.14 32.4019 34.0674C32.3888 34.046 32.3759 34.0247 32.3623 34.0038C31.4398 32.5904 30.5181 31.1766 29.5963 29.7627C29.135 29.0552 28.6738 28.3476 28.2124 27.6401C28.1072 27.4788 28.001 27.318 27.8951 27.1576C27.8623 27.1078 27.8294 27.058 27.7966 27.0083C27.7177 27.0398 27.6867 27.1 27.657 27.1575C27.6481 27.1748 27.6394 27.1918 27.6294 27.2078C27.4127 27.5567 27.1965 27.9059 26.9804 28.2551C26.5325 28.9788 26.0847 29.7024 25.6314 30.4227C25.5357 30.5749 25.5375 30.6795 25.6337 30.8278C26.403 32.0144 27.1499 33.215 27.8969 34.4157C28.2414 34.9696 28.586 35.5234 28.9328 36.076C28.9423 36.091 28.9527 36.1057 28.9632 36.1204C29.0011 36.1738 29.0395 36.2278 29.033 36.3008C29.0326 36.3016 29.0322 36.3023 29.0318 36.3031L29.0033 36.3175L28.9776 36.3301L28.9776 36.3302L28.9776 36.3302L28.9775 36.3302C28.9427 36.3474 28.908 36.3645 28.8745 36.3837L28.2055 36.7685C27.3658 37.2512 26.5261 37.734 25.6899 38.2228C25.5469 38.3065 25.4443 38.3085 25.3011 38.2245C24.3969 37.6942 23.488 37.1718 22.5778 36.6517C22.4536 36.5807 22.3306 36.5079 22.2075 36.435L22.2075 36.435L22.2074 36.435L22.2074 36.435L22.2074 36.435C21.9166 36.2628 21.6257 36.0907 21.3207 35.9434L21.3211 35.9429L21.3213 35.9431C21.3397 35.8406 21.3947 35.7566 21.4495 35.6728C21.4686 35.6437 21.4876 35.6147 21.5051 35.5848C22.7296 33.4938 23.9545 31.403 25.1794 29.3122L25.1802 29.3108C26.6669 26.7731 28.1536 24.2354 29.6396 21.6973C29.6491 21.6811 29.6604 21.6653 29.6719 21.6494C29.7089 21.5976 29.7478 21.5435 29.733 21.4632L29.6808 21.4631C29.6471 21.4629 29.6142 21.4627 29.5813 21.4632L28.6494 21.477C27.8758 21.4884 27.1024 21.4999 26.329 21.5101L26.3179 21.5102C25.9717 21.5146 25.9699 21.5146 25.7941 21.8032L19.3915 32.3213L18.6346 33.5643C18.2266 34.2342 17.8186 34.9041 17.411 35.5742C17.3038 35.75 17.3043 35.7523 17.4809 35.8553C17.8026 36.0429 18.1247 36.2297 18.4474 36.4149C18.8923 36.6703 19.3374 36.9251 19.7824 37.1799Z" fill="white" />
</g>
</svg>
